<svg width="56" height="56" fill="none" xmlns="http://www.w3.org/2000/svg"><path opacity=".08" fill-rule="evenodd" clip-rule="evenodd" d="M28 56c15.464 0 28-12.536 28-28S43.464 0 28 0 0 12.536 0 28s12.536 28 28 28z" fill="#39AC37"/><g clip-path="url(#clip0)" fill="#39AC37"><path d="M33.647 27.885a3.08 3.08 0 00-3.077 3.076 3.08 3.08 0 003.077 3.076 3.08 3.08 0 003.076-3.076 3.08 3.08 0 00-3.076-3.076zM36.663 34.037a4.288 4.288 0 01-3.005 1.23 4.288 4.288 0 01-3.004-1.23 4.29 4.29 0 00-1.302 3.076v1.272c0 .34.275.615.615.615h7.424c.34 0 .615-.275.615-.615v-1.272c0-1.205-.542-2.293-1.343-3.076zM21.342 18c-1.696 0-3.076 1.421-3.076 3.117a3.08 3.08 0 003.076 3.076 3.08 3.08 0 003.076-3.076c0-1.696-1.38-3.117-3.076-3.117z"/><path d="M24.352 24.193a4.289 4.289 0 01-3.004 1.23 4.288 4.288 0 01-3.005-1.23c-.8.783-1.343 1.871-1.343 3.076V28.5c0 .34.275.615.615.615h7.424c.34 0 .615-.275.615-.615v-1.23a4.29 4.29 0 00-1.302-3.077zM27.503 20.502c-.64 0-1.27.094-1.884.242.011.125.038.245.038.373 0 .31-.036.61-.098.902a6.779 6.779 0 011.944-.287c3.104 0 5.72 2.104 6.514 4.959.47.04.923.137 1.339.316-.702-3.698-3.954-6.505-7.853-6.505zM27.497 35.268c-3.091 0-5.699-2.086-6.505-4.922h-1.27c.837 3.521 4.001 6.152 7.775 6.152.229 0 .455-.015.68-.034a5.46 5.46 0 01.3-1.275 6.801 6.801 0 01-.98.079z"/></g><defs><clipPath id="clip0"><path fill="#fff" transform="translate(17 18)" d="M0 0h21v21H0z"/></clipPath></defs></svg>