<svg width="32" height="32" fill="none" xmlns="http://www.w3.org/2000/svg"><path d="M12.08 6.667h7.84a5.417 5.417 0 015.414 5.413v7.84a5.413 5.413 0 01-5.414 5.413h-7.84a5.417 5.417 0 01-5.413-5.413v-7.84a5.413 5.413 0 015.413-5.413zm-.186 1.866a3.36 3.36 0 00-3.36 3.36v8.214a3.358 3.358 0 003.36 3.36h8.213a3.36 3.36 0 003.36-3.36v-8.214a3.358 3.358 0 00-3.36-3.36h-8.213zm9.006 1.4a1.167 1.167 0 110 2.334 1.167 1.167 0 010-2.334zm-4.9 1.4a4.667 4.667 0 110 9.334 4.667 4.667 0 010-9.334zm0 1.867a2.8 2.8 0 100 5.6 2.8 2.8 0 000-5.6z" fill="#000"/></svg>