<svg width="56" height="56" fill="none" xmlns="http://www.w3.org/2000/svg"><path opacity=".08" fill-rule="evenodd" clip-rule="evenodd" d="M28 56c15.464 0 28-12.536 28-28S43.464 0 28 0 0 12.536 0 28s12.536 28 28 28z" fill="#39AC37"/><path d="M28 18c-4.444 0-8 3.454-8 7.773v6.045c0 1.468 1.156 2.591 2.667 2.591h2.666V27.5h-3.555v-1.727c0-3.369 2.755-6.046 6.222-6.046 3.467 0 6.222 2.677 6.222 6.046V27.5h-3.555v6.91h3.555v.863H28V37h5.333C34.844 37 36 35.877 36 34.41v-8.637C36 21.454 32.444 18 28 18z" fill="#39AC37"/></svg>