<svg xmlns="http://www.w3.org/2000/svg" width="100" height="96" fill="none"><path fill="#413C6C" d="M42.764 2.026a14.43 14.43 0 0 1 13.993 0l28.736 15.93a17.523 17.523 0 0 1 9.028 15.325v29.275c0 6.37-3.457 12.237-9.028 15.326L56.757 93.81a14.43 14.43 0 0 1-13.993 0L14.027 77.88A17.523 17.523 0 0 1 5 62.556V33.281c0-6.37 3.456-12.237 9.027-15.325l28.737-15.93Z"/><path stroke="#fff" stroke-width="1.325" d="M83.446 20.632 56.298 5.578a13.473 13.473 0 0 0-13.068 0L16.082 20.632A14.799 14.799 0 0 0 8.46 33.574v28.69a14.8 14.8 0 0 0 7.622 12.941L43.23 90.26a13.473 13.473 0 0 0 13.068 0l27.148-15.054a14.8 14.8 0 0 0 7.622-12.942v-28.69a14.798 14.798 0 0 0-7.622-12.941Z"/><path fill="#fff" d="M79.214 40.704H20.167v.441h59.047v-.441ZM79.214 69.712H20.167v.442h59.047v-.442ZM26.688 52.654c-.512 0-.908.192-1.189.578-.28.383-.42.919-.42 1.606 0 1.43.536 2.144 1.609 2.144.45 0 .996-.112 1.636-.337v1.14a4.543 4.543 0 0 1-1.763.329c-.933 0-1.646-.282-2.14-.847-.495-.567-.742-1.38-.742-2.438 0-.667.122-1.25.364-1.75.243-.503.59-.888 1.044-1.154.456-.269.99-.403 1.601-.403.623 0 1.248.15 1.877.452l-.438 1.105a7.282 7.282 0 0 0-.724-.298 2.159 2.159 0 0 0-.715-.127Zm8.852-1.04v4.15c0 .473-.106.888-.32 1.245-.21.356-.516.63-.917.82-.4.19-.874.285-1.42.285-.825 0-1.466-.21-1.922-.632-.456-.424-.684-1.003-.684-1.736v-4.132h1.355v3.925c0 .494.1.857.299 1.088.198.231.527.347.986.347.445 0 .767-.116.965-.347.202-.234.303-.6.303-1.096v-3.917h1.355Zm5.984 4.632c0 .578-.209 1.035-.627 1.368-.415.333-.994.5-1.737.5-.684 0-1.29-.129-1.816-.386v-1.263c.433.193.799.329 1.097.408.301.079.576.118.824.118.299 0 .527-.057.685-.17.16-.115.24-.285.24-.51a.552.552 0 0 0-.104-.333c-.07-.1-.174-.195-.312-.285-.134-.09-.41-.235-.829-.434-.392-.184-.685-.361-.881-.531a1.994 1.994 0 0 1-.47-.592 1.69 1.69 0 0 1-.175-.79c0-.567.192-1.013.575-1.337.386-.325.918-.487 1.596-.487.333 0 .65.04.952.118.304.08.621.19.951.334l-.438 1.057a6.361 6.361 0 0 0-.851-.294 2.708 2.708 0 0 0-.658-.084c-.257 0-.455.06-.592.18a.593.593 0 0 0-.206.47c0 .12.028.225.083.315a.965.965 0 0 0 .263.26c.123.081.411.23.864.447.6.286 1.01.574 1.233.863.222.287.333.64.333 1.057Zm4.265 1.78h-1.36v-5.28h-1.741v-1.132h4.842v1.132h-1.741v5.28Zm9.177-3.215c0 1.062-.264 1.877-.79 2.448-.526.57-1.28.855-2.263.855-.982 0-1.737-.285-2.263-.855-.526-.57-.79-1.39-.79-2.456 0-1.068.264-1.882.79-2.443.53-.565 1.286-.847 2.272-.847.985 0 1.738.284 2.259.851.523.567.785 1.383.785 2.447Zm-4.68 0c0 .717.136 1.256.408 1.619.272.362.678.544 1.22.544 1.084 0 1.626-.721 1.626-2.163 0-1.444-.54-2.166-1.618-2.166-.541 0-.949.182-1.224.548-.275.363-.412.902-.412 1.618Zm9.352 3.215-1.544-5.03h-.04c.056 1.023.084 1.706.084 2.048v2.982h-1.215v-6.412h1.851l1.518 4.904h.026l1.61-4.904h1.85v6.412h-1.267v-3.035c0-.143.001-.308.004-.495.006-.188.026-.685.062-1.492h-.04l-1.653 5.022h-1.246Zm10.08 0h-3.693v-6.412h3.693v1.114h-2.333v1.408h2.171v1.114h-2.171v1.653h2.333v1.123Zm3.331-3.566h.438c.43 0 .747-.071.952-.215.205-.143.307-.368.307-.675 0-.304-.105-.52-.315-.649-.208-.129-.531-.193-.97-.193h-.412v1.732Zm0 1.106v2.46h-1.36v-6.412h1.869c.87 0 1.516.16 1.934.478.418.316.627.797.627 1.443 0 .377-.103.714-.312 1.009-.207.292-.501.522-.88.688a251.345 251.345 0 0 0 1.885 2.794h-1.508l-1.532-2.46h-.723Zm-41.007 9.028c0 .579-.21 1.035-.628 1.368-.415.333-.994.5-1.736.5-.684 0-1.29-.13-1.816-.386v-1.264c.433.194.798.33 1.096.408.302.08.577.119.825.119.298 0 .526-.057.684-.171.161-.114.241-.284.241-.509a.552.552 0 0 0-.105-.333c-.07-.1-.174-.194-.311-.285-.135-.09-.411-.236-.83-.434-.391-.184-.685-.362-.88-.531a1.998 1.998 0 0 1-.47-.592 1.69 1.69 0 0 1-.175-.79c0-.567.191-1.013.574-1.338.386-.324.918-.486 1.597-.486.333 0 .65.04.951.118.304.08.622.19.952.333l-.439 1.058a6.359 6.359 0 0 0-.85-.294 2.707 2.707 0 0 0-.658-.084c-.258 0-.455.06-.592.18a.593.593 0 0 0-.207.47c0 .12.028.225.084.315a.974.974 0 0 0 .263.26c.123.08.41.23.864.446.6.287 1.01.575 1.232.864.223.287.334.639.334 1.058Zm7.01-4.632v4.15c0 .473-.107.888-.32 1.244-.21.357-.516.63-.917.82-.4.19-.874.286-1.42.286-.826 0-1.466-.21-1.922-.632-.456-.424-.684-1.003-.684-1.737v-4.131h1.355v3.925c0 .494.1.857.298 1.088.2.23.528.347.987.347.445 0 .766-.116.965-.347.202-.234.303-.6.303-1.096v-3.917h1.355Zm3.558 3.017h.448c.418 0 .73-.082.938-.245.208-.167.312-.408.312-.724 0-.319-.088-.554-.263-.706-.173-.152-.445-.228-.816-.228h-.619v1.904Zm3.07-1.017c0 .69-.216 1.218-.649 1.583-.43.366-1.042.548-1.837.548h-.584v2.281h-1.36v-6.412H43.3c.778 0 1.368.168 1.772.504.406.334.61.832.61 1.496Zm3.2 1.017h.447c.418 0 .73-.082.938-.245.208-.167.312-.408.312-.724 0-.319-.088-.554-.263-.706-.173-.152-.445-.228-.816-.228h-.619v1.904Zm3.07-1.017c0 .69-.217 1.218-.65 1.583-.43.366-1.042.548-1.837.548h-.584v2.281h-1.36v-6.412h2.049c.778 0 1.368.168 1.772.504.406.334.61.832.61 1.496Zm7.659 1.197c0 1.061-.263 1.878-.79 2.448-.526.57-1.28.855-2.263.855-.982 0-1.736-.285-2.263-.855-.526-.57-.79-1.39-.79-2.456 0-1.068.264-1.882.79-2.443.53-.565 1.287-.847 2.272-.847.985 0 1.738.284 2.259.85.523.568.785 1.384.785 2.448Zm-4.68 0c0 .717.136 1.256.408 1.619.272.362.678.544 1.22.544 1.084 0 1.626-.721 1.626-2.163 0-1.444-.539-2.166-1.618-2.166-.54 0-.949.182-1.224.548-.275.362-.412.902-.412 1.618Zm7.997-.35h.439c.43 0 .747-.072.952-.215.204-.144.307-.369.307-.676 0-.304-.106-.52-.316-.65-.208-.128-.531-.192-.97-.192h-.412v1.732Zm0 1.105v2.46h-1.36v-6.412h1.869c.871 0 1.516.159 1.934.478.418.316.627.797.627 1.443 0 .377-.103.713-.31 1.009a2.074 2.074 0 0 1-.883.688 260.488 260.488 0 0 0 1.886 2.794h-1.508l-1.531-2.46h-.724Zm7.672 2.46h-1.36v-5.28h-1.74v-1.132h4.842v1.131h-1.742v5.281ZM42.28 44.11h1.377c.597 0 1.047.086 1.35.26.304.172.456.47.456.895 0 .177-.032.337-.095.48a.886.886 0 0 1-.269.352 1 1 0 0 1-.436.183v.032c.179.031.338.087.477.167.142.08.252.196.333.345.082.15.123.344.123.582 0 .283-.067.523-.202.722-.133.198-.324.349-.573.452-.247.103-.54.155-.88.155h-1.66V44.11Zm.76 1.907h.727c.344 0 .582-.055.715-.167.133-.112.2-.275.2-.49 0-.22-.08-.378-.238-.475-.156-.097-.405-.146-.746-.146h-.658v1.279Zm0 .614V48.1h.8c.355 0 .603-.068.747-.205.143-.138.215-.323.215-.557a.695.695 0 0 0-.098-.374.606.606 0 0 0-.313-.243c-.146-.06-.342-.089-.589-.089h-.762Zm6.584 2.104h-2.62V44.11h2.62v.639h-1.86v1.256h1.743v.636h-1.743v1.452h1.86v.642Zm4.124-1.26c0 .275-.068.511-.203.71-.133.198-.325.35-.576.455a2.278 2.278 0 0 1-.892.158c-.168 0-.33-.01-.484-.028a3.336 3.336 0 0 1-.436-.082 2.38 2.38 0 0 1-.37-.136v-.715c.187.082.397.157.63.224a2.6 2.6 0 0 0 .708.098c.196 0 .358-.025.487-.076a.611.611 0 0 0 .291-.221.605.605 0 0 0 .095-.339.55.55 0 0 0-.11-.348 1.005 1.005 0 0 0-.336-.259 5.634 5.634 0 0 0-.557-.256 3.763 3.763 0 0 1-.436-.21 1.775 1.775 0 0 1-.367-.274 1.191 1.191 0 0 1-.257-.374 1.317 1.317 0 0 1-.092-.512c0-.262.063-.485.187-.67.127-.186.304-.329.532-.428.23-.099.497-.148.803-.148.243 0 .47.025.683.075.216.051.426.123.633.215l-.24.611a4.271 4.271 0 0 0-.554-.187 2.139 2.139 0 0 0-.544-.07c-.16 0-.296.025-.408.074a.572.572 0 0 0-.256.205.55.55 0 0 0-.086.31c0 .135.033.25.098.342.068.09.171.174.31.25.142.076.323.16.544.253.256.105.472.216.649.332.18.116.316.255.411.418.095.16.143.361.143.604Zm2.95 1.26h-.763v-3.98H54.58v-.645h3.467v.645h-1.35v3.98Z"/><path fill="#FD810B" fill-rule="evenodd" d="M64.26 23.644a1.21 1.21 0 0 1 1.202-1.209h8.868c.66 0 1.203.545 1.203 1.209v4.376a1.21 1.21 0 0 1-1.203 1.209h-.923c-.66 0-1.668.264-2.253.587l-3.218 1.797c-.577.323-.822.093-.552-.511l.373-.817c.271-.605-.042-1.099-.703-1.099h-1.6a1.21 1.21 0 0 1-1.203-1.209v-4.333" clip-rule="evenodd"/><path fill="#fff" fill-rule="evenodd" d="M65.534 34.268h-1.19c-.088 0-.119-.056-.119-.118l.01-.155c.021-.314.32-.546.711-.546.382 0 .685.227.712.536l.01.155c0 .072-.026.128-.134.128Zm-.634-2.065c-1.288 0-2.205.927-2.205 1.988v1.406c0 1.18.876 2 2.205 2 .721 0 1.242-.253 1.613-.614.174-.175.314-.381.437-.587.067-.108.031-.232-.03-.263l-1.082-.546c-.067-.03-.134-.01-.165.088-.15.38-.402.556-.773.556-.401 0-.69-.273-.69-.623v-.242c0-.078.03-.119.129-.119h2.632c.067 0 .108-.03.108-.108v-.948c.006-1.05-.901-1.988-2.18-1.988ZM60.186 33.547c.34 0 .588.217.773.655.031.077.088.097.165.067l1.072-.48c.066-.03.087-.098.056-.185a2.53 2.53 0 0 0-.35-.613c-.36-.48-.897-.752-1.726-.752-1.355 0-2.174.819-2.174 1.998v1.33c0 1.18.82 1.988 2.174 1.988.763 0 1.267-.227 1.628-.633.185-.206.33-.459.448-.742.031-.088.01-.145-.056-.175l-1.072-.49c-.077-.03-.129-.01-.165.067-.185.438-.438.665-.773.665-.401 0-.664-.284-.664-.634v-1.432c-.005-.35.258-.634.664-.634ZM57.039 32.357H55.74c-.077 0-.108.03-.108.108v4.859c0 .077.031.108.108.108h1.299c.061 0 .097-.031.097-.108v-4.859c0-.077-.046-.108-.097-.108ZM56.38 30.214a.77.77 0 0 0-.768.768.77.77 0 0 0 .767.768.77.77 0 0 0 .768-.768.766.766 0 0 0-.767-.768ZM54.948 32.357h-1.386c-.057 0-.098.03-.118.087l-.82 2.35a4.046 4.046 0 0 0-.129.546h-.03a3.495 3.495 0 0 0-.13-.546l-.85-2.36c-.02-.056-.05-.077-.108-.077h-1.385c-.098 0-.13.067-.098.154l1.952 4.849c.021.051.062.077.109.077h1.014c.057 0 .098-.02.12-.077l1.962-4.849c.03-.087 0-.154-.103-.154ZM47.792 35.546c0 .36-.294.634-.675.634-.391 0-.664-.273-.664-.634v-1.308c0-.35.273-.614.664-.614.392 0 .675.263.675.614v1.308Zm1.396-4.992H47.9c-.051 0-.108.031-.108.108v1.52c0 .165.03.48.03.48-.216-.197-.576-.305-.839-.305-1.19 0-2.05.799-2.05 1.989v1.102c0 1.267.742 1.989 2.076 1.989.304 0 .664-.098.896-.294.067-.057.145-.036.145.051v.165c0 .042.03.078.087.078h1.056c.067 0 .108-.031.108-.108v-6.667c-.005-.072-.046-.108-.113-.108ZM42.094 35.087h-.664c-.108 0-.155-.066-.13-.128l.228-.886c.108-.402.195-.886.216-1.17h.046c.02.284.088.763.196 1.17l.232.886c.02.062-.026.128-.124.128Zm.263-4.456c-.02-.056-.057-.077-.108-.077h-.974c-.067 0-.087.02-.108.078l-2.148 6.66c-.031.088.01.145.108.145h1.375c.057 0 .078-.021.098-.078l.314-.994c.021-.056.042-.067.119-.067h1.442c.078 0 .098.01.119.067l.304.994c.02.052.046.078.108.078h1.386c.108 0 .144-.057.108-.145l-2.143-6.66ZM60.816 25.846h-1.19c-.087 0-.118-.057-.118-.119l.01-.154c.02-.315.32-.547.711-.547.381 0 .69.227.71.536l.011.155c-.005.072-.026.129-.134.129Zm-.633-2.066c-1.288 0-2.205.927-2.205 1.988v1.407c0 1.18.87 1.998 2.205 1.998.721 0 1.246-.252 1.617-.613a2.79 2.79 0 0 0 .438-.587c.067-.108.031-.232-.031-.263l-1.082-.546c-.066-.03-.129-.01-.164.088-.155.381-.402.556-.773.556-.402 0-.69-.273-.69-.623v-.242c0-.077.03-.119.134-.119h2.632c.067 0 .108-.03.108-.108v-.948c-.005-1.05-.912-1.988-2.19-1.988ZM57.324 23.955a2.008 2.008 0 0 0-.284-.02c-.412 0-.809.195-.984.412-.056.051-.144.046-.144-.052v-.252c0-.078-.03-.108-.108-.108h-1.036c-.067 0-.108.03-.108.108V28.9c0 .078.041.108.108.108h1.288c.067 0 .108-.03.108-.108v-2.895a.63.63 0 0 1 .655-.655c.165 0 .304.021.438.057.098.02.165-.01.165-.108v-1.237c0-.051-.036-.098-.098-.108ZM51.534 27.83h-.402c-.232 0-.361-.145-.361-.449 0-.216.155-.37.371-.37h.927c.067 0 .088.118.088.154-.026.402-.33.664-.623.664Zm-.031-4.014c-.675 0-1.18.216-1.551.556-.206.186-.371.402-.5.644-.067.109-.03.232.031.263l1.082.546c.067.031.129.01.165-.087.154-.382.402-.557.773-.557.401 0 .654.273.654.624v.056c0 .078-.031.119-.108.119h-.964c-.958 0-1.736.525-1.736 1.442v.109c0 .927.7 1.483 1.639 1.483h.38c.294 0 .624-.098.85-.283.042-.03.099-.02.109.01l.03.186c.011.056.058.087.12.087h1.071c.067 0 .108-.03.108-.108v-3.091c.005-1.18-.824-2-2.153-2ZM48.911 23.935h-1.319c-.067 0-.108.03-.118.087l-.49 2.05a4.61 4.61 0 0 0-.108.789h-.036a4.574 4.574 0 0 0-.118-.789l-.495-2.05c-.01-.056-.056-.087-.118-.087h-1.082c-.067 0-.098.03-.108.087l-.48 2.04a5.535 5.535 0 0 0-.118.742h-.03a4.225 4.225 0 0 0-.109-.742l-.51-2.04c-.01-.056-.041-.087-.108-.087h-1.355c-.098 0-.134.056-.098.144l1.54 4.858c.021.051.057.077.109.077h.963c.067 0 .098-.02.108-.077l.603-2.262c.067-.252.118-.675.118-.675h.031s.057.428.119.675l.587 2.246c.01.057.041.088.108.088h.948c.057 0 .088-.02.108-.077l1.561-4.858c.031-.073-.005-.14-.103-.14ZM41.55 23.934h-.732c-.098 0-.129-.03-.129-.108v-.69c0-.077-.02-.098-.098-.098h-.69a.184.184 0 0 0-.129.057l-1.365 1.365v.742c0 .077.03.098.108.098h.546c.098 0 .129.046.129.118v1.705c0 1.309.819 1.989 1.855 1.989h.458c.098 0 .144-.041.144-.119V27.87c0-.067-.03-.108-.108-.108h-.186c-.448 0-.664-.273-.664-.742v-1.602c0-.077.03-.118.129-.118h.731c.078 0 .098-.021.098-.098v-1.16c0-.077-.02-.108-.098-.108ZM38.288 22.08a3.938 3.938 0 0 0-.772-.077c-1.618 0-2.226 1.123-2.226 2.009v.273c0 .077-.03.108-.118.108h-.253c-.067 0-.108.031-.108.108v1.15c0 .076.041.107.108.107h.253c.098 0 .118.031.118.108v3.035c0 .077.031.108.108.108h1.288c.078 0 .108-.03.108-.108v-3.035c0-.077.031-.108.119-.108h.706c.077 0 .108-.03.108-.108v-1.149c0-.077-.031-.108-.108-.108h-.711c-.088 0-.119-.03-.119-.108v-.294c0-.38.273-.623.685-.623.145 0 .294.02.413.057.077.02.118 0 .144-.067l.34-1.123c.026-.078.005-.134-.083-.155ZM32.643 27.185c0 .35-.284.634-.665.634-.402 0-.69-.284-.69-.634v-1.427c0-.34.283-.634.69-.634.381 0 .665.284.665.634v1.427Zm-.665-3.37c-1.334 0-2.205.82-2.205 2v1.329c0 1.18.871 1.988 2.205 1.988 1.309 0 2.184-.798 2.184-1.988v-1.33c0-1.194-.875-1.998-2.184-1.998ZM27.429 24.903c-.603-.226-1.247-.391-1.247-.88 0-.392.294-.655.675-.655h.165c.371 0 .623.175.778.556.03.098.098.119.165.088l1.082-.546c.067-.03.098-.155.03-.263a2.213 2.213 0 0 0-.33-.469c-.38-.427-.926-.731-1.725-.731h-.165c-1.365 0-2.205.809-2.205 2.04 0 1.257.81 1.726 1.814 2.128.654.262 1.22.401 1.22.947 0 .449-.35.644-.741.644h-.273c-.371 0-.624-.175-.773-.556-.03-.098-.098-.119-.165-.088l-1.082.547c-.067.03-.098.154-.03.262.097.175.216.35.36.505.371.412.917.696 1.69.696h.35c1.386 0 2.195-.799 2.195-2.03 0-1.273-.752-1.788-1.788-2.195Z" clip-rule="evenodd"/><path fill="#F5821F" d="M43.922 79.853c.136 0 .242.039.318.114a.398.398 0 0 1 .118.3v.737h-4.575v-.409a.742.742 0 0 1 .218-.509l1.956-1.96a7.61 7.61 0 0 0 .44-.478c.128-.155.234-.305.32-.45.084-.15.148-.299.19-.451.043-.151.064-.31.064-.478 0-.294-.076-.517-.227-.668-.152-.154-.366-.232-.642-.232a1.004 1.004 0 0 0-.61.195.983.983 0 0 0-.204.214.88.88 0 0 0-.127.269c-.055.151-.13.253-.223.305-.091.048-.221.059-.391.031l-.664-.118a2.53 2.53 0 0 1 .272-.846c.134-.243.3-.444.5-.605.2-.16.43-.28.688-.36.257-.081.535-.122.832-.122.312 0 .596.047.85.14.258.092.478.22.66.388.182.163.323.362.423.595.1.234.15.492.15.774 0 .243-.035.467-.104.673a2.65 2.65 0 0 1-.287.59 4.19 4.19 0 0 1-.414.542c-.158.176-.324.354-.5.533L41.552 80a3.647 3.647 0 0 1 .887-.147h1.483Zm5.895-2.15c0 .576-.062 1.076-.186 1.5-.124.425-.296.777-.514 1.055a2.084 2.084 0 0 1-.778.62c-.297.133-.619.2-.964.2-.346 0-.667-.067-.965-.2a2.058 2.058 0 0 1-.768-.62c-.216-.278-.385-.63-.51-1.054-.121-.425-.182-.925-.182-1.502 0-.576.061-1.075.182-1.496.125-.424.294-.775.51-1.051.215-.279.471-.485.768-.618.298-.137.619-.205.965-.205.345 0 .667.068.964.205.3.133.56.34.778.618.218.276.39.627.514 1.051.124.421.186.92.186 1.496Zm-1.296 0c0-.468-.033-.853-.1-1.156-.064-.303-.149-.543-.255-.719a.924.924 0 0 0-.368-.368.918.918 0 0 0-.423-.105.919.919 0 0 0-.423.105.948.948 0 0 0-.36.368 2.43 2.43 0 0 0-.25.72 5.776 5.776 0 0 0-.095 1.154c0 .47.032.857.095 1.16.064.303.147.543.25.719a.954.954 0 0 0 .36.368.918.918 0 0 0 .846 0 .93.93 0 0 0 .368-.368c.106-.176.191-.416.255-.719.067-.303.1-.69.1-1.16Zm5.955 2.15c.136 0 .242.039.318.114a.398.398 0 0 1 .118.3v.737h-4.575v-.409a.742.742 0 0 1 .218-.509l1.956-1.96a7.61 7.61 0 0 0 .441-.478c.127-.155.233-.305.318-.45a1.99 1.99 0 0 0 .191-.451 1.76 1.76 0 0 0 .064-.478c0-.294-.076-.517-.227-.668-.152-.154-.366-.232-.642-.232a1.004 1.004 0 0 0-.61.195.983.983 0 0 0-.204.214.88.88 0 0 0-.127.269c-.055.151-.13.253-.223.305-.091.048-.221.059-.391.031l-.664-.118c.048-.321.14-.603.273-.846s.3-.444.5-.605c.2-.16.429-.28.687-.36.258-.081.535-.122.832-.122.312 0 .596.047.85.14.258.092.478.22.66.388.182.163.323.362.423.595.1.234.15.492.15.774 0 .243-.034.467-.104.673-.07.206-.166.403-.287.59a4.18 4.18 0 0 1-.414.542c-.157.176-.324.354-.5.533L52.106 80a3.652 3.652 0 0 1 .887-.147h1.483Zm5.563.228v.923h-3.702v-.923h1.31V76.47a6.805 6.805 0 0 1 .018-.492l-.864.719a.426.426 0 0 1-.341.091.393.393 0 0 1-.227-.137l-.396-.531 2.028-1.72h1.033v5.681h1.141Z"/></svg>