<svg width="32" height="32" fill="none" xmlns="http://www.w3.org/2000/svg"><path d="M26.356 9.882a8.065 8.065 0 01-2.315.65 4.046 4.046 0 001.77-2.24c-.782.47-1.648.8-2.56.988-.745-.81-1.79-1.28-2.976-1.28-2.211 0-4.018 1.807-4.018 4.038 0 .32.037.63.103.922a11.477 11.477 0 01-8.32-4.216 3.994 3.994 0 00-.546 2.023c0 1.402.706 2.645 1.798 3.35-.668 0-1.29-.188-1.835-.47v.028a4.04 4.04 0 003.237 3.963 3.969 3.969 0 01-1.816.065 4.028 4.028 0 003.764 2.805 8.02 8.02 0 01-5.016 1.732c-.32 0-.64-.019-.96-.056A11.43 11.43 0 0012.86 24c7.416 0 11.492-6.155 11.492-11.492 0-.179 0-.348-.01-.527a8.067 8.067 0 002.014-2.099z" fill="#000"/></svg>