<svg width="109" height="32" fill="none" xmlns="http://www.w3.org/2000/svg"><path d="M9.378 20.565c-5 0-6.702-6.32-7.083-7.55-.957-3.086-1.248-5.867-1.28-6.159C.839 5.172 2.19 4.001 3.673 4.001c1.123 0 2.426.671 2.599 2.301.03.275.258 2.639 1.066 5.216.843 2.688 1.737 3.722 2.38 3.722 1.04 0 1.675-2.669 2.236-5.21.413-1.873.86-3.76 1.741-5.436C15.228 1.678 17.547 1 19.55 1c4.392 0 6.59 5.085 6.59 6.403 0 2.202-1.797 2.763-2.576 2.763-1.703 0-2.28-1.14-2.767-2.14-.437-.9-.893-1.648-1.484-1.648-.194 0-.373.099-.54.267-1.467 1.49-1.959 9.288-4.892 12.268-1.626 1.652-3.396 1.652-4.502 1.652z" fill="url(#a)"/><path d="M9.378 20.565c-5 0-6.702-6.32-7.083-7.55-.957-3.086-1.248-5.867-1.28-6.159C.839 5.172 2.19 4.001 3.673 4.001c1.123 0 2.426.671 2.599 2.301.03.275.258 2.639 1.066 5.216.843 2.688 1.737 3.722 2.38 3.722 1.04 0 1.675-2.669 2.236-5.21.413-1.873.86-3.76 1.741-5.436C15.228 1.678 17.547 1 19.55 1c4.392 0 6.59 5.085 6.59 6.403 0 2.202-1.797 2.763-2.576 2.763-1.703 0-2.28-1.14-2.767-2.14-.437-.9-.893-1.648-1.484-1.648-.194 0-.373.099-.54.267-1.467 1.49-1.959 9.288-4.892 12.268-1.626 1.652-3.396 1.652-4.502 1.652z" fill="url(#b)"/><path d="M9.378 20.565c-5 0-6.702-6.32-7.083-7.55-.957-3.086-1.248-5.867-1.28-6.159C.839 5.172 2.19 4.001 3.673 4.001c1.123 0 2.426.671 2.599 2.301.03.275.258 2.639 1.066 5.216.843 2.688 1.737 3.722 2.38 3.722 1.04 0 1.675-2.669 2.236-5.21.413-1.873.86-3.76 1.741-5.436C15.228 1.678 17.547 1 19.55 1c4.392 0 6.59 5.085 6.59 6.403 0 2.202-1.797 2.763-2.576 2.763-1.703 0-2.28-1.14-2.767-2.14-.437-.9-.893-1.648-1.484-1.648-.194 0-.373.099-.54.267-1.467 1.49-1.959 9.288-4.892 12.268-1.626 1.652-3.396 1.652-4.502 1.652z" fill="url(#c)"/><path d="M9.378 20.565c-5 0-6.702-6.32-7.083-7.55-.957-3.086-1.248-5.867-1.28-6.159C.839 5.172 2.19 4.001 3.673 4.001c1.123 0 2.426.671 2.599 2.301.03.275.258 2.639 1.066 5.216.843 2.688 1.737 3.722 2.38 3.722 1.04 0 1.675-2.669 2.236-5.21.413-1.873.86-3.76 1.741-5.436C15.228 1.678 17.547 1 19.55 1c4.392 0 6.59 5.085 6.59 6.403 0 2.202-1.797 2.763-2.576 2.763-1.703 0-2.28-1.14-2.767-2.14-.437-.9-.893-1.648-1.484-1.648-.194 0-.373.099-.54.267-1.467 1.49-1.959 9.288-4.892 12.268-1.626 1.652-3.396 1.652-4.502 1.652z" fill="url(#d)"/><path d="M9.378 20.565c-5 0-6.702-6.32-7.083-7.55-.957-3.086-1.248-5.867-1.28-6.159C.839 5.172 2.19 4.001 3.673 4.001c1.123 0 2.426.671 2.599 2.301.03.275.258 2.639 1.066 5.216.843 2.688 1.737 3.722 2.38 3.722 1.04 0 1.675-2.669 2.236-5.21.413-1.873.86-3.76 1.741-5.436C15.228 1.678 17.547 1 19.55 1c4.392 0 6.59 5.085 6.59 6.403 0 2.202-1.797 2.763-2.576 2.763-1.703 0-2.28-1.14-2.767-2.14-.437-.9-.893-1.648-1.484-1.648-.194 0-.373.099-.54.267-1.467 1.49-1.959 9.288-4.892 12.268-1.626 1.652-3.396 1.652-4.502 1.652z" fill="url(#e)"/><path d="M9.378 20.565c-5 0-6.702-6.32-7.083-7.55-.957-3.086-1.248-5.867-1.28-6.159C.839 5.172 2.19 4.001 3.673 4.001c1.123 0 2.426.671 2.599 2.301.03.275.258 2.639 1.066 5.216.843 2.688 1.737 3.722 2.38 3.722 1.04 0 1.675-2.669 2.236-5.21.413-1.873.86-3.76 1.741-5.436C15.228 1.678 17.547 1 19.55 1c4.392 0 6.59 5.085 6.59 6.403 0 2.202-1.797 2.763-2.576 2.763-1.703 0-2.28-1.14-2.767-2.14-.437-.9-.893-1.648-1.484-1.648-.194 0-.373.099-.54.267-1.467 1.49-1.959 9.288-4.892 12.268-1.626 1.652-3.396 1.652-4.502 1.652z" fill="url(#f)"/><path d="M9.378 20.565c-5 0-6.702-6.32-7.083-7.55-.957-3.086-1.248-5.867-1.28-6.159C.839 5.172 2.19 4.001 3.673 4.001c1.123 0 2.426.671 2.599 2.301.03.275.258 2.639 1.066 5.216.843 2.688 1.737 3.722 2.38 3.722 1.04 0 1.675-2.669 2.236-5.21.413-1.873.86-3.76 1.741-5.436C15.228 1.678 17.547 1 19.55 1c4.392 0 6.59 5.085 6.59 6.403 0 2.202-1.797 2.763-2.576 2.763-1.703 0-2.28-1.14-2.767-2.14-.437-.9-.893-1.648-1.484-1.648-.194 0-.373.099-.54.267-1.467 1.49-1.959 9.288-4.892 12.268-1.626 1.652-3.396 1.652-4.502 1.652z" fill="url(#g)"/><path d="M9.378 20.565c-5 0-6.702-6.32-7.083-7.55-.957-3.086-1.248-5.867-1.28-6.159C.839 5.172 2.19 4.001 3.673 4.001c1.123 0 2.426.671 2.599 2.301.03.275.258 2.639 1.066 5.216.843 2.688 1.737 3.722 2.38 3.722 1.04 0 1.675-2.669 2.236-5.21.413-1.873.86-3.76 1.741-5.436C15.228 1.678 17.547 1 19.55 1c4.392 0 6.59 5.085 6.59 6.403 0 2.202-1.797 2.763-2.576 2.763-1.703 0-2.28-1.14-2.767-2.14-.437-.9-.893-1.648-1.484-1.648-.194 0-.373.099-.54.267-1.467 1.49-1.959 9.288-4.892 12.268-1.626 1.652-3.396 1.652-4.502 1.652z" fill="url(#h)"/><path d="M9.378 20.565c-5 0-6.702-6.32-7.083-7.55-.957-3.086-1.248-5.867-1.28-6.159C.839 5.172 2.19 4.001 3.673 4.001c1.123 0 2.426.671 2.599 2.301.03.275.258 2.639 1.066 5.216.843 2.688 1.737 3.722 2.38 3.722 1.04 0 1.675-2.669 2.236-5.21.413-1.873.86-3.76 1.741-5.436C15.228 1.678 17.547 1 19.55 1c4.392 0 6.59 5.085 6.59 6.403 0 2.202-1.797 2.763-2.576 2.763-1.703 0-2.28-1.14-2.767-2.14-.437-.9-.893-1.648-1.484-1.648-.194 0-.373.099-.54.267-1.467 1.49-1.959 9.288-4.892 12.268-1.626 1.652-3.396 1.652-4.502 1.652z" fill="url(#i)"/><path d="M19.55 1c-2.003 0-4.322.679-5.856 3.594-.882 1.676-1.328 3.563-1.742 5.436-.136.616-.276 1.24-.425 1.83v8.473c.758-.215 1.572-.627 2.353-1.42 2.933-2.98 3.425-10.777 4.892-12.268.167-.168.346-.267.54-.267.59 0 1.047.748 1.484 1.648.486 1 1.064 2.14 2.767 2.14.779 0 2.575-.561 2.575-2.763C26.138 6.085 23.941 1 19.55 1z" fill="url(#j)"/><path d="M9.378 20.565c-5 0-6.702-6.32-7.083-7.55-.957-3.086-1.248-5.867-1.28-6.159C.839 5.172 2.19 4.001 3.673 4.001c1.123 0 2.426.671 2.599 2.301.03.275.258 2.639 1.066 5.216.843 2.688 1.737 3.722 2.38 3.722 1.04 0 1.675-2.669 2.236-5.21.413-1.873.86-3.76 1.741-5.436C15.228 1.678 17.547 1 19.55 1c4.392 0 6.59 5.085 6.59 6.403 0 2.202-1.797 2.763-2.576 2.763-1.703 0-2.28-1.14-2.767-2.14-.437-.9-.893-1.648-1.484-1.648-.194 0-.373.099-.54.267-1.467 1.49-1.959 9.288-4.892 12.268-1.626 1.652-3.396 1.652-4.502 1.652z" fill="url(#k)"/><path d="M9.378 20.565c-5 0-6.702-6.32-7.083-7.55-.957-3.086-1.248-5.867-1.28-6.159C.839 5.172 2.19 4.001 3.673 4.001c1.123 0 2.426.671 2.599 2.301.03.275.258 2.639 1.066 5.216.843 2.688 1.737 3.722 2.38 3.722 1.04 0 1.675-2.669 2.236-5.21.413-1.873.86-3.76 1.741-5.436C15.228 1.678 17.547 1 19.55 1c4.392 0 6.59 5.085 6.59 6.403 0 2.202-1.797 2.763-2.576 2.763-1.703 0-2.28-1.14-2.767-2.14-.437-.9-.893-1.648-1.484-1.648-.194 0-.373.099-.54.267-1.467 1.49-1.959 9.288-4.892 12.268-1.626 1.652-3.396 1.652-4.502 1.652z" fill="url(#l)"/><path d="M9.378 20.565c-5 0-6.702-6.32-7.083-7.55-.957-3.086-1.248-5.867-1.28-6.159C.839 5.172 2.19 4.001 3.673 4.001c1.123 0 2.426.671 2.599 2.301.03.275.258 2.639 1.066 5.216.843 2.688 1.737 3.722 2.38 3.722 1.04 0 1.675-2.669 2.236-5.21.413-1.873.86-3.76 1.741-5.436C15.228 1.678 17.547 1 19.55 1c4.392 0 6.59 5.085 6.59 6.403 0 2.202-1.797 2.763-2.576 2.763-1.703 0-2.28-1.14-2.767-2.14-.437-.9-.893-1.648-1.484-1.648-.194 0-.373.099-.54.267-1.467 1.49-1.959 9.288-4.892 12.268-1.626 1.652-3.396 1.652-4.502 1.652z" fill="url(#m)"/><path d="M9.378 20.565c-5 0-6.702-6.32-7.083-7.55-.957-3.086-1.248-5.867-1.28-6.159C.839 5.172 2.19 4.001 3.673 4.001c1.123 0 2.426.671 2.599 2.301.03.275.258 2.639 1.066 5.216.843 2.688 1.737 3.722 2.38 3.722 1.04 0 1.675-2.669 2.236-5.21.413-1.873.86-3.76 1.741-5.436C15.228 1.678 17.547 1 19.55 1c4.392 0 6.59 5.085 6.59 6.403 0 2.202-1.797 2.763-2.576 2.763-1.703 0-2.28-1.14-2.767-2.14-.437-.9-.893-1.648-1.484-1.648-.194 0-.373.099-.54.267-1.467 1.49-1.959 9.288-4.892 12.268-1.626 1.652-3.396 1.652-4.502 1.652z" fill="url(#n)"/><path d="M9.378 20.565c-5 0-6.702-6.32-7.083-7.55-.957-3.086-1.248-5.867-1.28-6.159C.839 5.172 2.19 4.001 3.673 4.001c1.123 0 2.426.671 2.599 2.301.03.275.258 2.639 1.066 5.216.843 2.688 1.737 3.722 2.38 3.722 1.04 0 1.675-2.669 2.236-5.21.413-1.873.86-3.76 1.741-5.436C15.228 1.678 17.547 1 19.55 1c4.392 0 6.59 5.085 6.59 6.403 0 2.202-1.797 2.763-2.576 2.763-1.703 0-2.28-1.14-2.767-2.14-.437-.9-.893-1.648-1.484-1.648-.194 0-.373.099-.54.267-1.467 1.49-1.959 9.288-4.892 12.268-1.626 1.652-3.396 1.652-4.502 1.652z" fill="url(#o)"/><path d="M25.328 4c-.197 0-.396.02-.592.058.928 1.338 1.393 2.74 1.393 3.345 0 2.201-1.797 2.763-2.576 2.763-.607 0-1.072-.145-1.44-.377l-.01.04c-.11.438-.196.916-.345 1.381-.288.895-.675 1.917-1.09 2.708-.446.853-.888 1.352-1.415 1.326-.599-.03-1.085-.801-1.688-2.983a44.478 44.478 0 0 1-.542-2.231c-.415-1.878-.923-3.767-1.793-5.436C13.81 1.87 11.386 1 9.452 1c-1.795 0-3.135.849-4.188 1.919a8.583 8.583 0 0 0-.928 1.162c.918.22 1.787.912 1.925 2.221.028.25.22 2.233.863 4.531.185-.576.455-1.43 1.08-2.807.307-.631.584-1.047.834-1.301.229-.233.435-.329.62-.329.2 0 .885.183 1.55 2.518.826 2.896 1.44 7.504 3.782 9.951 1.032 1.08 2.477 1.777 4.48 1.777 1.757 0 3.222-.773 4.267-1.849 1.717-1.77 2.658-4.695 2.994-5.777.955-3.08 1.223-5.865 1.254-6.16.178-1.684-1.242-2.855-2.657-2.855z" fill="#316AFF"/><path d="M25.328 4c-.197 0-.396.02-.592.058.928 1.338 1.393 2.74 1.393 3.345 0 2.201-1.797 2.763-2.576 2.763-.607 0-1.072-.145-1.44-.377l-.01.04c-.11.438-.196.916-.345 1.381-.288.895-.675 1.917-1.09 2.708-.446.853-.888 1.352-1.415 1.326-.599-.03-1.085-.801-1.688-2.983a44.478 44.478 0 0 1-.542-2.231c-.415-1.878-.923-3.767-1.793-5.436C13.81 1.87 11.386 1 9.452 1c-1.795 0-3.135.849-4.188 1.919a8.583 8.583 0 0 0-.928 1.162c.918.22 1.787.912 1.925 2.221.028.25.22 2.233.863 4.531.185-.576.455-1.43 1.08-2.807.307-.631.584-1.047.834-1.301.229-.233.435-.329.62-.329.2 0 .885.183 1.55 2.518.826 2.896 1.44 7.504 3.782 9.951 1.032 1.08 2.477 1.777 4.48 1.777 1.757 0 3.222-.773 4.267-1.849 1.717-1.77 2.658-4.695 2.994-5.777.955-3.08 1.223-5.865 1.254-6.16.178-1.684-1.242-2.855-2.657-2.855z" fill="url(#p)"/><path d="M25.328 4c-.197 0-.396.02-.592.058.928 1.338 1.393 2.74 1.393 3.345 0 2.201-1.797 2.763-2.576 2.763-.607 0-1.072-.145-1.44-.377l-.01.04c-.11.438-.196.916-.345 1.381-.288.895-.675 1.917-1.09 2.708-.446.853-.888 1.352-1.415 1.326-.599-.03-1.085-.801-1.688-2.983a44.478 44.478 0 0 1-.542-2.231c-.415-1.878-.923-3.767-1.793-5.436C13.81 1.87 11.386 1 9.452 1c-1.795 0-3.135.849-4.188 1.919a8.583 8.583 0 0 0-.928 1.162c.918.22 1.787.912 1.925 2.221.028.25.22 2.233.863 4.531.185-.576.455-1.43 1.08-2.807.307-.631.584-1.047.834-1.301.229-.233.435-.329.62-.329.2 0 .885.183 1.55 2.518.826 2.896 1.44 7.504 3.782 9.951 1.032 1.08 2.477 1.777 4.48 1.777 1.757 0 3.222-.773 4.267-1.849 1.717-1.77 2.658-4.695 2.994-5.777.955-3.08 1.223-5.865 1.254-6.16.178-1.684-1.242-2.855-2.657-2.855z" fill="url(#q)"/><path d="M25.328 4c-.197 0-.396.02-.592.058.928 1.338 1.393 2.74 1.393 3.345 0 2.201-1.797 2.763-2.576 2.763-.607 0-1.072-.145-1.44-.377l-.01.04c-.11.438-.196.916-.345 1.381-.288.895-.675 1.917-1.09 2.708-.446.853-.888 1.352-1.415 1.326-.599-.03-1.085-.801-1.688-2.983a44.478 44.478 0 0 1-.542-2.231c-.415-1.878-.923-3.767-1.793-5.436C13.81 1.87 11.386 1 9.452 1c-1.795 0-3.135.849-4.188 1.919a8.583 8.583 0 0 0-.928 1.162c.918.22 1.787.912 1.925 2.221.028.25.22 2.233.863 4.531.185-.576.455-1.43 1.08-2.807.307-.631.584-1.047.834-1.301.229-.233.435-.329.62-.329.2 0 .885.183 1.55 2.518.826 2.896 1.44 7.504 3.782 9.951 1.032 1.08 2.477 1.777 4.48 1.777 1.757 0 3.222-.773 4.267-1.849 1.717-1.77 2.658-4.695 2.994-5.777.955-3.08 1.223-5.865 1.254-6.16.178-1.684-1.242-2.855-2.657-2.855z" fill="url(#r)"/><path d="M25.328 4c-.197 0-.396.02-.592.058.928 1.338 1.393 2.74 1.393 3.345 0 2.201-1.797 2.763-2.576 2.763-.607 0-1.072-.145-1.44-.377l-.01.04c-.11.438-.196.916-.345 1.381-.288.895-.675 1.917-1.09 2.708-.446.853-.888 1.352-1.415 1.326-.599-.03-1.085-.801-1.688-2.983a44.478 44.478 0 0 1-.542-2.231c-.415-1.878-.923-3.767-1.793-5.436C13.81 1.87 11.386 1 9.452 1c-1.795 0-3.135.849-4.188 1.919a8.583 8.583 0 0 0-.928 1.162c.918.22 1.787.912 1.925 2.221.028.25.22 2.233.863 4.531.185-.576.455-1.43 1.08-2.807.307-.631.584-1.047.834-1.301.229-.233.435-.329.62-.329.2 0 .885.183 1.55 2.518.826 2.896 1.44 7.504 3.782 9.951 1.032 1.08 2.477 1.777 4.48 1.777 1.757 0 3.222-.773 4.267-1.849 1.717-1.77 2.658-4.695 2.994-5.777.955-3.08 1.223-5.865 1.254-6.16.178-1.684-1.242-2.855-2.657-2.855z" fill="url(#s)"/><path d="M25.328 4c-.197 0-.396.02-.592.058.928 1.338 1.393 2.74 1.393 3.345 0 2.201-1.797 2.763-2.576 2.763-.607 0-1.072-.145-1.44-.377l-.01.04c-.11.438-.196.916-.345 1.381-.288.895-.675 1.917-1.09 2.708-.446.853-.888 1.352-1.415 1.326-.599-.03-1.085-.801-1.688-2.983a44.478 44.478 0 0 1-.542-2.231c-.415-1.878-.923-3.767-1.793-5.436C13.81 1.87 11.386 1 9.452 1c-1.795 0-3.135.849-4.188 1.919a8.583 8.583 0 0 0-.928 1.162c.918.22 1.787.912 1.925 2.221.028.25.22 2.233.863 4.531.185-.576.455-1.43 1.08-2.807.307-.631.584-1.047.834-1.301.229-.233.435-.329.62-.329.2 0 .885.183 1.55 2.518.826 2.896 1.44 7.504 3.782 9.951 1.032 1.08 2.477 1.777 4.48 1.777 1.757 0 3.222-.773 4.267-1.849 1.717-1.77 2.658-4.695 2.994-5.777.955-3.08 1.223-5.865 1.254-6.16.178-1.684-1.242-2.855-2.657-2.855z" fill="url(#t)"/><path d="M25.328 4c-.197 0-.396.02-.592.058.928 1.338 1.393 2.74 1.393 3.345 0 2.201-1.797 2.763-2.576 2.763-.607 0-1.072-.145-1.44-.377l-.01.04c-.11.438-.196.916-.345 1.381-.288.895-.675 1.917-1.09 2.708-.446.853-.888 1.352-1.415 1.326-.599-.03-1.085-.801-1.688-2.983a44.478 44.478 0 0 1-.542-2.231c-.415-1.878-.923-3.767-1.793-5.436C13.81 1.87 11.386 1 9.452 1c-1.795 0-3.135.849-4.188 1.919a8.583 8.583 0 0 0-.928 1.162c.918.22 1.787.912 1.925 2.221.028.25.22 2.233.863 4.531.185-.576.455-1.43 1.08-2.807.307-.631.584-1.047.834-1.301.229-.233.435-.329.62-.329.2 0 .885.183 1.55 2.518.826 2.896 1.44 7.504 3.782 9.951 1.032 1.08 2.477 1.777 4.48 1.777 1.757 0 3.222-.773 4.267-1.849 1.717-1.77 2.658-4.695 2.994-5.777.955-3.08 1.223-5.865 1.254-6.16.178-1.684-1.242-2.855-2.657-2.855z" fill="url(#u)"/><path d="M25.328 4c-.197 0-.396.02-.592.058.928 1.338 1.393 2.74 1.393 3.345 0 2.201-1.797 2.763-2.576 2.763-.607 0-1.072-.145-1.44-.377l-.01.04c-.11.438-.196.916-.345 1.381-.288.895-.675 1.917-1.09 2.708-.446.853-.888 1.352-1.415 1.326-.599-.03-1.085-.801-1.688-2.983a44.478 44.478 0 0 1-.542-2.231c-.415-1.878-.923-3.767-1.793-5.436C13.81 1.87 11.386 1 9.452 1c-1.795 0-3.135.849-4.188 1.919a8.583 8.583 0 0 0-.928 1.162c.918.22 1.787.912 1.925 2.221.028.25.22 2.233.863 4.531.185-.576.455-1.43 1.08-2.807.307-.631.584-1.047.834-1.301.229-.233.435-.329.62-.329.2 0 .885.183 1.55 2.518.826 2.896 1.44 7.504 3.782 9.951 1.032 1.08 2.477 1.777 4.48 1.777 1.757 0 3.222-.773 4.267-1.849 1.717-1.77 2.658-4.695 2.994-5.777.955-3.08 1.223-5.865 1.254-6.16.178-1.684-1.242-2.855-2.657-2.855z" fill="url(#v)"/><path d="M25.328 4c-.197 0-.396.02-.592.058.928 1.338 1.393 2.74 1.393 3.345 0 2.201-1.797 2.763-2.576 2.763-.607 0-1.072-.145-1.44-.377l-.01.04c-.11.438-.196.916-.345 1.381-.288.895-.675 1.917-1.09 2.708-.446.853-.888 1.352-1.415 1.326-.599-.03-1.085-.801-1.688-2.983a44.478 44.478 0 0 1-.542-2.231c-.415-1.878-.923-3.767-1.793-5.436C13.81 1.87 11.386 1 9.452 1c-1.795 0-3.135.849-4.188 1.919a8.583 8.583 0 0 0-.928 1.162c.918.22 1.787.912 1.925 2.221.028.25.22 2.233.863 4.531.185-.576.455-1.43 1.08-2.807.307-.631.584-1.047.834-1.301.229-.233.435-.329.62-.329.2 0 .885.183 1.55 2.518.826 2.896 1.44 7.504 3.782 9.951 1.032 1.08 2.477 1.777 4.48 1.777 1.757 0 3.222-.773 4.267-1.849 1.717-1.77 2.658-4.695 2.994-5.777.955-3.08 1.223-5.865 1.254-6.16.178-1.684-1.242-2.855-2.657-2.855z" fill="url(#w)"/><path d="M25.328 4c-.197 0-.396.02-.592.058.928 1.338 1.393 2.74 1.393 3.345 0 2.201-1.797 2.763-2.576 2.763-.607 0-1.072-.145-1.44-.377l-.01.04c-.11.438-.196.916-.345 1.381-.288.895-.675 1.917-1.09 2.708-.446.853-.888 1.352-1.415 1.326-.599-.03-1.085-.801-1.688-2.983a44.478 44.478 0 0 1-.542-2.231c-.415-1.878-.923-3.767-1.793-5.436C13.81 1.87 11.386 1 9.452 1c-1.795 0-3.135.849-4.188 1.919a8.583 8.583 0 0 0-.928 1.162c.918.22 1.787.912 1.925 2.221.028.25.22 2.233.863 4.531.185-.576.455-1.43 1.08-2.807.307-.631.584-1.047.834-1.301.229-.233.435-.329.62-.329.2 0 .885.183 1.55 2.518.826 2.896 1.44 7.504 3.782 9.951 1.032 1.08 2.477 1.777 4.48 1.777 1.757 0 3.222-.773 4.267-1.849 1.717-1.77 2.658-4.695 2.994-5.777.955-3.08 1.223-5.865 1.254-6.16.178-1.684-1.242-2.855-2.657-2.855z" fill="url(#x)"/><path d="M25.328 4c-.197 0-.396.02-.592.058.928 1.338 1.393 2.74 1.393 3.345 0 2.201-1.797 2.763-2.576 2.763-.607 0-1.072-.145-1.44-.377l-.01.04c-.11.438-.196.916-.345 1.381-.288.895-.675 1.917-1.09 2.708-.446.853-.888 1.352-1.415 1.326-.599-.03-1.085-.801-1.688-2.983a44.478 44.478 0 0 1-.542-2.231c-.415-1.878-.923-3.767-1.793-5.436C13.81 1.87 11.386 1 9.452 1c-1.795 0-3.135.849-4.188 1.919a8.583 8.583 0 0 0-.928 1.162c.918.22 1.787.912 1.925 2.221.028.25.22 2.233.863 4.531.185-.576.455-1.43 1.08-2.807.307-.631.584-1.047.834-1.301.229-.233.435-.329.62-.329.2 0 .885.183 1.55 2.518.826 2.896 1.44 7.504 3.782 9.951 1.032 1.08 2.477 1.777 4.48 1.777 1.757 0 3.222-.773 4.267-1.849 1.717-1.77 2.658-4.695 2.994-5.777.955-3.08 1.223-5.865 1.254-6.16.178-1.684-1.242-2.855-2.657-2.855z" fill="url(#y)"/><path d="M9.378 20.565c-5 0-6.702-6.32-7.083-7.55-.957-3.086-1.248-5.867-1.28-6.159C.839 5.172 2.19 4.001 3.673 4.001c1.123 0 2.426.671 2.599 2.301.03.275.258 2.639 1.066 5.216.843 2.688 1.737 3.722 2.38 3.722 1.04 0 1.675-2.669 2.236-5.21.413-1.873.86-3.76 1.741-5.436C15.228 1.678 17.547 1 19.55 1c4.392 0 6.59 5.085 6.59 6.403 0 2.202-1.797 2.763-2.576 2.763-1.703 0-2.28-1.14-2.767-2.14-.437-.9-.893-1.648-1.484-1.648-.194 0-.373.099-.54.267-1.467 1.49-1.959 9.288-4.892 12.268-1.626 1.652-3.396 1.652-4.502 1.652z" fill="url(#z)"/><path d="M9.378 20.565c-5 0-6.702-6.32-7.083-7.55-.957-3.086-1.248-5.867-1.28-6.159C.839 5.172 2.19 4.001 3.673 4.001c1.123 0 2.426.671 2.599 2.301.03.275.258 2.639 1.066 5.216.843 2.688 1.737 3.722 2.38 3.722 1.04 0 1.675-2.669 2.236-5.21.413-1.873.86-3.76 1.741-5.436C15.228 1.678 17.547 1 19.55 1c4.392 0 6.59 5.085 6.59 6.403 0 2.202-1.797 2.763-2.576 2.763-1.703 0-2.28-1.14-2.767-2.14-.437-.9-.893-1.648-1.484-1.648-.194 0-.373.099-.54.267-1.467 1.49-1.959 9.288-4.892 12.268-1.626 1.652-3.396 1.652-4.502 1.652z" fill="url(#A)"/><path d="M9.378 20.565c-5 0-6.702-6.32-7.083-7.55-.957-3.086-1.248-5.867-1.28-6.159C.839 5.172 2.19 4.001 3.673 4.001c1.123 0 2.426.671 2.599 2.301.03.275.258 2.639 1.066 5.216.843 2.688 1.737 3.722 2.38 3.722 1.04 0 1.675-2.669 2.236-5.21.413-1.873.86-3.76 1.741-5.436C15.228 1.678 17.547 1 19.55 1c4.392 0 6.59 5.085 6.59 6.403 0 2.202-1.797 2.763-2.576 2.763-1.703 0-2.28-1.14-2.767-2.14-.437-.9-.893-1.648-1.484-1.648-.194 0-.373.099-.54.267-1.467 1.49-1.959 9.288-4.892 12.268-1.626 1.652-3.396 1.652-4.502 1.652z" fill="url(#B)"/><path d="M9.378 20.565c-5 0-6.702-6.32-7.083-7.55-.957-3.086-1.248-5.867-1.28-6.159C.839 5.172 2.19 4.001 3.673 4.001c1.123 0 2.426.671 2.599 2.301.03.275.258 2.639 1.066 5.216.843 2.688 1.737 3.722 2.38 3.722 1.04 0 1.675-2.669 2.236-5.21.413-1.873.86-3.76 1.741-5.436C15.228 1.678 17.547 1 19.55 1c4.392 0 6.59 5.085 6.59 6.403 0 2.202-1.797 2.763-2.576 2.763-1.703 0-2.28-1.14-2.767-2.14-.437-.9-.893-1.648-1.484-1.648-.194 0-.373.099-.54.267-1.467 1.49-1.959 9.288-4.892 12.268-1.626 1.652-3.396 1.652-4.502 1.652z" fill="url(#C)"/><path d="M9.378 20.565c-5 0-6.702-6.32-7.083-7.55-.957-3.086-1.248-5.867-1.28-6.159C.839 5.172 2.19 4.001 3.673 4.001c1.123 0 2.426.671 2.599 2.301.03.275.258 2.639 1.066 5.216.843 2.688 1.737 3.722 2.38 3.722 1.04 0 1.675-2.669 2.236-5.21.413-1.873.86-3.76 1.741-5.436C15.228 1.678 17.547 1 19.55 1c4.392 0 6.59 5.085 6.59 6.403 0 2.202-1.797 2.763-2.576 2.763-1.703 0-2.28-1.14-2.767-2.14-.437-.9-.893-1.648-1.484-1.648-.194 0-.373.099-.54.267-1.467 1.49-1.959 9.288-4.892 12.268-1.626 1.652-3.396 1.652-4.502 1.652z" fill="url(#D)"/><path d="M90.946 25.11h-1.297v5.081h1.297v-5.08zM101.27 26.57a2.145 2.145 0 0 0-1.082-.27c-.837 0-1.405.567-1.405 1.35 0 .379.135.73.406 1 .27.27.621.406.999.379.379 0 .757-.081 1.082-.27v1.378c-.379.108-.784.19-1.163.19-1.432 0-2.702-1-2.702-2.65 0-1.513 1.135-2.621 2.702-2.621.406 0 .784.054 1.163.19v1.324zM87.865 26.57a2.141 2.141 0 0 0-1.081-.27c-.838 0-1.406.567-1.406 1.35 0 .379.135.73.406 1 .27.27.621.406 1 .379.378 0 .756-.081 1.08-.27v1.378c-.378.108-.783.19-1.161.19-1.433 0-2.703-1-2.703-2.65 0-1.513 1.135-2.621 2.703-2.621.405 0 .783.054 1.162.19v1.324zM107.999 27.65a2.683 2.683 0 0 1-1.621 2.514 2.7 2.7 0 0 1-2.946-.54 2.65 2.65 0 0 1-.595-2.947 2.71 2.71 0 0 1 2.487-1.675 2.485 2.485 0 0 1 1.891.757c.514.486.784 1.162.784 1.891zm-2.675-1.35c-.541 0-1.027.323-1.244.81a1.319 1.319 0 0 0 .271 1.46c.378.378.973.513 1.459.297.514-.217.838-.703.838-1.244 0-.351-.135-.702-.378-.946a1.402 1.402 0 0 0-.946-.378zM95.784 26.245a6.415 6.415 0 0 0-1-.162c-.514 0-.784.162-.784.405 0 .298.378.406.594.487l.379.108c.838.27 1.216.838 1.216 1.46 0 1.27-1.135 1.702-2.108 1.702-.46 0-.919-.054-1.378-.135v-1.19c.405.109.81.163 1.216.19.648 0 .946-.19.946-.486 0-.27-.243-.406-.568-.514l-.351-.027c-.703-.216-1.324-.649-1.324-1.486 0-.946.702-1.595 1.891-1.595.433 0 .838.054 1.244.162l.027 1.081zM75.043 30h-.553v-5.04h.672v1.904c.285-.406.69-.609 1.218-.609.485 0 .873.168 1.162.504.294.331.441.796.441 1.393 0 .616-.152 1.097-.455 1.442-.303.34-.702.511-1.197.511-.518 0-.912-.196-1.183-.588l-.105.483zm2.24-1.862c0-.43-.098-.754-.294-.973a.953.953 0 0 0-.763-.336c-.317 0-.581.114-.791.343-.205.229-.308.55-.308.966 0 .434.1.775.301 1.022.2.247.467.371.798.371.327 0 .583-.117.77-.35.191-.233.287-.581.287-1.043zm4.374-1.778-1.267 3.689c-.159.462-.32.796-.483 1.001-.163.21-.4.315-.707.315-.121 0-.266-.021-.434-.063v-.546c.13.033.247.049.35.049.15 0 .264-.056.343-.168.08-.107.177-.32.294-.637h-.217l-1.337-3.64h.728l1.029 3.094 1.029-3.094h.672zM51.896 6.604h2.827l-4.126 13.097h-3.16l-3.124-9.86-3.142 9.86h-3.072L34 6.604h2.835l2.931 10.015 3.037-10.015h3.09l3.09 10.015 2.913-10.015zM64.974 16.15l1.334 2.06c-.807.687-1.21.868-2.124 1.338-1.07.326-1.571.452-3.054.452-1.874 0-3.388-.725-4.53-1.916-1.14-1.192-1.688-2.696-1.688-4.928 0-2.215.6-3.842 1.724-5.033 1.124-1.209 2.493-1.88 4.318-1.88 1.858 0 3.26.69 4.319 1.916 1.059 1.208 1.615 2.784 1.615 6.002h-9.199c0 .506.228 1.356.86 2.151.701.722 1.56 1.23 2.669 1.23.75 0 1.44-.11 1.983-.308.544-.199 1.212-.597 1.773-1.085zm-3.967-7.358c-.961 0-1.56.228-2.212.85-.652.603-.965 1.482-1.106 2.404h6.478c-.106-.995-.4-1.8-1.036-2.405-.62-.604-1.114-.85-2.124-.85zM71.36 19.7h-2.594V1h2.643v7.25c1.166-1.375 2.134-1.935 3.975-1.935 1.695 0 3.36.726 4.371 1.934 1.027 1.192 1.808 2.608 1.808 4.756 0 2.215-.485 3.511-1.545 4.753-1.035 1.374-2.8 2.224-4.526 2.224-1.81 0-3.186-.609-4.131-2.018V19.7zm7.394-6.695c0-1.544-.35-2.123-1.035-2.912-.668-.805-1.525-1.157-2.633-1.157s-1.953.263-2.686 1.085c-.717.822-1.113 1.49-1.113 2.984 0 1.56.272 2.255.972 3.144.701.89 1.6 1.194 2.756 1.194 1.141 0 2.192-.463 2.844-1.302.474-.687.895-1.375.895-3.036zM107.824 6.61l-4.564 6.394L108 19.7h-3.353l-3.177-4.6-3.142 4.6h-3.156l4.7-6.697-4.599-6.393h3.318l3.019 4.386 3.055-4.386h3.159zM93.114 16.15l1.334 2.06c-.807.687-1.211.868-2.124 1.338-1.07.326-1.572.452-3.055.452-1.874 0-3.388-.725-4.529-1.916-1.14-1.192-1.689-2.696-1.689-4.928 0-2.215.6-3.842 1.725-5.033 1.124-1.209 2.493-1.88 4.318-1.88 1.858 0 3.26.69 4.318 1.916 1.06 1.208 1.615 2.784 1.615 6.002H85.83c0 .506.228 1.356.86 2.151.7.722 1.56 1.23 2.668 1.23.75 0 1.44-.11 1.984-.308.544-.199 1.211-.597 1.773-1.085zm-3.967-7.358c-.962 0-1.56.228-2.212.85-.652.603-.966 1.482-1.106 2.404h6.477c-.105-.995-.4-1.8-1.035-2.405-.62-.604-1.114-.85-2.124-.85z" fill="#000"/><defs><radialGradient id="b" cx="0" cy="0" r="1" gradientUnits="userSpaceOnUse" gradientTransform="matrix(-5.93468 -9.92675 8.33548 -4.98335 11.277 11.434)"><stop stop-color="#007383"/><stop offset=".408" stop-color="#00717E" stop-opacity=".75"/><stop offset=".874" stop-color="#007281" stop-opacity="0"/></radialGradient><radialGradient id="c" cx="0" cy="0" r="1" gradientUnits="userSpaceOnUse" gradientTransform="rotate(-126.749 11.766 -.091) scale(9.43259 6.19863)"><stop stop-color="#218970"/><stop offset=".46" stop-color="#267E6A"/><stop offset="1" stop-color="#026C51" stop-opacity="0"/></radialGradient><radialGradient id="d" cx="0" cy="0" r="1" gradientUnits="userSpaceOnUse" gradientTransform="matrix(-2.30685 -7.32666 3.81862 -1.20232 10.61 11.98)"><stop stop-color="#178697"/><stop offset=".408" stop-color="#17838F" stop-opacity=".79"/><stop offset=".874" stop-color="#007281" stop-opacity="0"/></radialGradient><radialGradient id="e" cx="0" cy="0" r="1" gradientUnits="userSpaceOnUse" gradientTransform="matrix(-10.01032 -16.74394 5.1662 -3.0886 14.027 11.939)"><stop stop-color="#25342F" stop-opacity=".3"/><stop offset="1" stop-color="#25342F" stop-opacity="0"/></radialGradient><radialGradient id="f" cx="0" cy="0" r="1" gradientUnits="userSpaceOnUse" gradientTransform="matrix(.6281 7.31942 -4.15362 .35643 17.509 9.496)"><stop stop-color="#056D4F"/><stop offset=".233" stop-color="#056C4E" stop-opacity=".75"/><stop offset=".599" stop-color="#056C4E" stop-opacity=".301"/><stop offset=".874" stop-color="#056C4F" stop-opacity="0"/></radialGradient><radialGradient id="g" cx="0" cy="0" r="1" gradientUnits="userSpaceOnUse" gradientTransform="rotate(57.064 11.11 15.208) scale(8.63704 4.5311)"><stop stop-color="#22B67B"/><stop offset=".408" stop-color="#24BE82"/><stop offset="1" stop-color="#24BE82" stop-opacity=".07"/></radialGradient><radialGradient id="i" cx="0" cy="0" r="1" gradientUnits="userSpaceOnUse" gradientTransform="matrix(7.30622 8.59562 -8.57482 7.28854 -2.954 -.656)"><stop stop-color="#09F8FF"/><stop offset="1" stop-color="#0BF7F9" stop-opacity="0"/></radialGradient><radialGradient id="j" cx="0" cy="0" r="1" gradientUnits="userSpaceOnUse" gradientTransform="matrix(15.3112 17.0029 -16.97703 15.2879 6.085 -6.334)"><stop stop-color="#00B8FF"/><stop offset=".745" stop-color="#00B9FC" stop-opacity="0"/></radialGradient><radialGradient id="k" cx="0" cy="0" r="1" gradientUnits="userSpaceOnUse" gradientTransform="rotate(-107.477 7.618 2.735) scale(11.0268 7.64361)"><stop stop-color="#00BCFF" stop-opacity=".76"/><stop offset=".573" stop-color="#00BAFC" stop-opacity="0"/></radialGradient><radialGradient id="l" cx="0" cy="0" r="1" gradientUnits="userSpaceOnUse" gradientTransform="matrix(-4.96745 -6.01208 4.20947 -3.47805 24.069 6.636)"><stop stop-color="#5FEC50"/><stop offset="1" stop-color="#3CC08E" stop-opacity="0"/></radialGradient><radialGradient id="m" cx="0" cy="0" r="1" gradientUnits="userSpaceOnUse" gradientTransform="rotate(-79.089 18.536 -8.07) scale(2.3606 1.63349)"><stop stop-color="#28855B"/><stop offset="1" stop-color="#14795C" stop-opacity="0"/></radialGradient><radialGradient id="n" cx="0" cy="0" r="1" gradientUnits="userSpaceOnUse" gradientTransform="matrix(.4088 -1.90262 2.66026 .5716 22.838 11.484)"><stop stop-color="#28855B"/><stop offset="1" stop-color="#14795C" stop-opacity="0"/></radialGradient><radialGradient id="o" cx="0" cy="0" r="1" gradientUnits="userSpaceOnUse" gradientTransform="rotate(-132.805 14.321 -1.506) scale(6.45693 4.53624)"><stop stop-color="#5FF05B"/><stop offset=".813" stop-color="#5DE955" stop-opacity="0"/></radialGradient><radialGradient id="p" cx="0" cy="0" r="1" gradientUnits="userSpaceOnUse" gradientTransform="matrix(4.55969 3.49136 -4.85225 6.337 23.137 9.832)"><stop stop-color="#123AA8"/><stop offset=".966" stop-color="#123AA8" stop-opacity="0"/></radialGradient><radialGradient id="q" cx="0" cy="0" r="1" gradientUnits="userSpaceOnUse" gradientTransform="rotate(8.482 -59.806 151.616) scale(6.77726 10.111)"><stop stop-color="#123AA8"/><stop offset=".592" stop-color="#123AA8" stop-opacity="0"/></radialGradient><radialGradient id="r" cx="0" cy="0" r="1" gradientUnits="userSpaceOnUse" gradientTransform="rotate(24.652 -14.773 56.592) scale(5.78877 10.3115)"><stop stop-color="#123AA8"/><stop offset=".757" stop-color="#123AA8" stop-opacity="0"/></radialGradient><radialGradient id="s" cx="0" cy="0" r="1" gradientUnits="userSpaceOnUse" gradientTransform="rotate(95.806 5.52 15.579) scale(10.4019 5.70328)"><stop stop-color="#123AA8"/><stop offset=".592" stop-color="#123AA8" stop-opacity="0"/><stop offset="1" stop-color="#123AA8" stop-opacity="0"/></radialGradient><radialGradient id="t" cx="0" cy="0" r="1" gradientUnits="userSpaceOnUse" gradientTransform="rotate(93.669 8.253 14.386) scale(12.5183 4.46982)"><stop stop-color="#123AA8"/><stop offset=".885" stop-color="#123AA8" stop-opacity="0"/></radialGradient><radialGradient id="u" cx="0" cy="0" r="1" gradientUnits="userSpaceOnUse" gradientTransform="matrix(.59895 6.61572 -3.50676 .31748 8.943 9.673)"><stop stop-color="#123AA8"/><stop offset=".885" stop-color="#123AA8" stop-opacity="0"/></radialGradient><radialGradient id="v" cx="0" cy="0" r="1" gradientUnits="userSpaceOnUse" gradientTransform="rotate(87.249 -.699 9.615) scale(6.93276 5.72661)"><stop stop-color="#123AA8"/><stop offset=".885" stop-color="#123AA8" stop-opacity="0"/></radialGradient><radialGradient id="w" cx="0" cy="0" r="1" gradientUnits="userSpaceOnUse" gradientTransform="rotate(-23.162 45.19 -17.477) scale(7.73471 15.1132)"><stop stop-color="#123AA8"/><stop offset=".709" stop-color="#123AA8" stop-opacity="0"/></radialGradient><radialGradient id="x" cx="0" cy="0" r="1" gradientUnits="userSpaceOnUse" gradientTransform="matrix(-4.80106 -1.7916 3.0665 -8.21746 7.764 8.157)"><stop stop-color="#1A3DA0"/><stop offset=".709" stop-color="#123AA8" stop-opacity="0"/></radialGradient><radialGradient id="y" cx="0" cy="0" r="1" gradientUnits="userSpaceOnUse" gradientTransform="matrix(9.35972 2.8153 -2.84078 9.44442 3.253 9.9)"><stop stop-color="#1E3882"/><stop offset=".761" stop-color="#123AA8" stop-opacity="0"/></radialGradient><radialGradient id="A" cx="0" cy="0" r="1" gradientUnits="userSpaceOnUse" gradientTransform="matrix(7.30622 8.59562 -8.57482 7.28854 -2.955 -.656)"><stop stop-color="#09F8FF"/><stop offset="1" stop-color="#0BF7F9" stop-opacity="0"/></radialGradient><radialGradient id="D" cx="0" cy="0" r="1" gradientUnits="userSpaceOnUse" gradientTransform="rotate(-107.477 7.618 2.736) scale(11.0268 7.64361)"><stop stop-color="#00BCFF" stop-opacity=".76"/><stop offset=".573" stop-color="#00BAFC" stop-opacity="0"/></radialGradient><linearGradient id="a" x1="23.403" y1="6.74" x2="5.743" y2="12.535" gradientUnits="userSpaceOnUse"><stop stop-color="#5CEE64"/><stop offset="1" stop-color="#0BF"/></linearGradient><linearGradient id="h" x1="-5.643" y1="10.612" x2="6.873" y2="10.715" gradientUnits="userSpaceOnUse"><stop stop-color="#09F8FF"/><stop offset="1" stop-color="#0BF7F9" stop-opacity="0"/></linearGradient><linearGradient id="z" x1=".187" y1="4.496" x2="9.816" y2="10.645" gradientUnits="userSpaceOnUse"><stop offset=".229" stop-color="#1DC4FF"/><stop offset="1" stop-color="#1CC1FF" stop-opacity="0"/></linearGradient><linearGradient id="B" x1=".72" y1="4.81" x2="3.42" y2="7.26" gradientUnits="userSpaceOnUse"><stop stop-color="#26FBFF"/><stop offset=".637" stop-color="#0BF7F9" stop-opacity="0"/></linearGradient><linearGradient id="C" x1=".002" y1="6.684" x2="3.739" y2="6.951" gradientUnits="userSpaceOnUse"><stop stop-color="#26FBFF"/><stop offset=".637" stop-color="#0BF7F9" stop-opacity="0"/></linearGradient></defs></svg>