<svg width="32" height="32" fill="none" xmlns="http://www.w3.org/2000/svg"><path d="M13.866 18.667l5.536-3.2-5.536-3.2v6.4zm12.331-8.352c.139.501.235 1.173.299 2.026.074.854.106 1.59.106 2.23l.064.896c0 2.336-.17 4.053-.469 5.152-.267.96-.885 1.578-1.845 1.845-.502.139-1.419.235-2.827.299a71.159 71.159 0 01-3.83.106L16 22.933c-4.47 0-7.254-.17-8.352-.469-.96-.267-1.579-.885-1.846-1.845-.138-.502-.234-1.174-.298-2.027a25.665 25.665 0 01-.107-2.23l-.064-.895c0-2.336.17-4.054.47-5.152.266-.96.885-1.579 1.845-1.846.501-.138 1.418-.234 2.826-.298a71.091 71.091 0 013.83-.107L16 8c4.469 0 7.253.17 8.352.47.96.266 1.578.885 1.845 1.845z" fill="#000"/></svg>