<svg width="71" height="32" fill="none" xmlns="http://www.w3.org/2000/svg"><path d="M0 25.255l7.29-11.271H.828c-.083-.329-.083-.658-.083-1.069 0-.411 0-.74.084-1.07h10.437l.166.33L4.06 23.525h6.875c.083.33.083.741.083 1.07 0 .329 0 .74-.083.988H.165L0 25.254zm21.124-8.72c0-1.07-.248-1.81-.827-2.221-.581-.411-1.326-.659-2.32-.659-.663 0-1.242.083-1.74.165-.58.083-1.076.247-1.574.412-.331-.577-.497-1.317-.497-2.14.58-.164 1.326-.329 2.07-.493.747-.082 1.492-.165 2.155-.165 1.823 0 3.148.411 4.142 1.234.912.823 1.408 2.139 1.408 3.95v8.637a14.82 14.82 0 01-2.319.41 15.38 15.38 0 01-2.734.247 10.79 10.79 0 01-2.403-.246c-.745-.165-1.324-.411-1.822-.741a3.22 3.22 0 01-1.16-1.398 5.051 5.051 0 01-.413-2.057c0-.74.165-1.48.496-2.056a4.517 4.517 0 011.326-1.481c.58-.411 1.16-.658 1.905-.822.663-.166 1.409-.248 2.237-.248h1.408c.331 0 .662.082.91.082v-.41h-.248zm0 2.632c-.248 0-.58-.082-.993-.082-.414 0-.746-.082-1.077-.082-1.16 0-1.99.246-2.569.657-.58.411-.91 1.07-.91 1.892 0 .577.082.988.33 1.234.166.33.415.576.747.658.33.166.662.248.993.33.331 0 .664.082.995.082.414 0 .828 0 1.325-.082.414-.082.828-.082 1.16-.165v-4.442zm5.55-7.322c.166 0 .332-.082.58-.082h1.16c.166 0 .415.082.58.082 0 0 0 .165.083.33 0 .165.083.411.083.576 0 .246.083.41.083.657v.411c.165-.246.414-.575.662-.822.25-.246.58-.493.912-.74a2.913 2.913 0 011.16-.494c.414-.164.91-.164 1.491-.164.828 0 1.574.164 2.236.41.663.248 1.326.66 1.823 1.235.53.626.926 1.354 1.16 2.138.248.906.414 1.893.414 3.044 0 2.386-.663 4.196-1.905 5.512-1.326 1.317-3.148 1.974-5.468 1.974-.414 0-.828 0-1.242-.082a21.973 21.973 0 01-1.078-.246v6.334c-.248 0-.414.082-.662.082h-1.325c-.249 0-.497-.082-.663-.082V11.846h-.084zm2.652 11.517c.33.165.663.248 1.077.248.331.082.828.082 1.408.082.663 0 1.242-.082 1.823-.33.58-.247.993-.493 1.408-.987.414-.41.662-.987.91-1.645.25-.659.332-1.399.332-2.304 0-1.398-.248-2.55-.828-3.455-.497-.822-1.408-1.233-2.651-1.233-.414 0-.91.082-1.326.247-.414.164-.745.41-1.076.74-.343.347-.598.77-.746 1.233-.166.494-.331 1.07-.331 1.728v5.676zm13.006-9.46h-1.74c0-.164-.083-.33-.083-.494v-1.15c0-.165.083-.33.083-.495h4.39v13.82c-.165 0-.413.083-.662.083h-1.325c-.25 0-.498-.082-.663-.082V13.903zm8.45 5.512c0 1.48.414 2.633 1.16 3.29.745.659 1.822 1.07 3.313 1.07 1.243 0 2.486-.247 3.645-.659.166.248.249.577.332.988.083.41.165.74.165 1.152-.58.246-1.241.41-1.989.575-.745.165-1.49.165-2.401.165-1.242 0-2.32-.165-3.231-.494-.911-.329-1.656-.822-2.237-1.48-.58-.658-.994-1.399-1.325-2.221-.249-.905-.414-1.81-.414-2.88 0-.987.165-1.975.414-2.879a5.66 5.66 0 011.242-2.303c.58-.659 1.242-1.152 2.071-1.564.828-.41 1.823-.575 2.9-.575.993 0 1.822.164 2.485.494.746.329 1.325.74 1.823 1.316.497.576.828 1.233 1.076 2.056.249.741.414 1.646.414 2.55v.822c0 .248 0 .494-.083.742h-9.36v-.165zm6.876-2.056c0-.494-.083-.988-.166-1.4a5.657 5.657 0 00-.58-1.232c-.249-.33-.58-.577-.994-.823-.414-.247-.911-.33-1.408-.33-1.078 0-1.905.33-2.569.987-.58.659-.91 1.564-1.076 2.798h6.793zm5.55-5.513c.165 0 .414-.082.58-.082h1.16c.165 0 .413.082.579.082.083.248.083.659.166 1.07.083.411.083.822.083 1.152.414-.576.91-1.152 1.491-1.564.663-.411 1.408-.658 2.402-.658h.828c0 .166.083.33.083.495v1.234c0 .246-.082.493-.082.658-.166 0-.332-.083-.414-.083h-.332c-.497 0-.912.083-1.408.165a3.489 3.489 0 00-1.16.74 3.33 3.33 0 00-.828 1.398c-.249.577-.331 1.316-.331 2.304v6.828c-.166 0-.414.082-.664.082h-1.324c-.25 0-.498-.082-.664-.082V11.845h-.165zM47.55 3.701H44.9l1.822-1.81c-.165-.164-.33-.41-.496-.575a3.602 3.602 0 00-.58-.493l-1.823 1.81V.083C43.657 0 43.409 0 43.078 0c-.25 0-.498 0-.746.082v2.633L40.509.822c-.165.165-.414.329-.58.493a3.583 3.583 0 00-.497.576l1.823 1.81h-2.65s-.084.494-.084.74c0 .247 0 .494.083.74h2.651l-1.823 1.81c.332.411.663.74 1.077 1.07l1.823-1.81v2.633c.248 0 .496.082.746.082.248 0 .496 0 .745-.082V6.252l1.822 1.809c.166-.165.414-.33.58-.494.166-.164.332-.328.497-.576L44.9 5.183h2.65c0-.246.083-.493.083-.74 0-.246-.083-.494-.083-.74V3.7zm-3.313.741c0 .33-.083.658-.166.905-.33.082-.58.164-.91.164a2.998 2.998 0 01-.912-.164c-.083-.33-.166-.576-.166-.905 0-.328.083-.658.166-.905.331-.082.58-.164.911-.164.332 0 .663.082.911.164.083.247.166.577.166.905z" fill="#FF4A00"/></svg>